<?xml version="1.0" standalone="no"?>
<!DOCTYPE svg PUBLIC "-//W3C//DTD SVG 20010904//EN"
 "http://www.w3.org/TR/2001/REC-SVG-20010904/DTD/svg10.dtd">
<svg version="1.0" xmlns="http://www.w3.org/2000/svg"
 width="623.000000pt" height="525.000000pt" viewBox="0 0 623.000000 525.000000"
 preserveAspectRatio="xMidYMid meet">
<metadata>
Created by potrace 1.11, written by Peter Selinger 2001-2013
</metadata>
<g transform="translate(0.000000,525.000000) scale(0.100000,-0.100000)"
fill="#000000" stroke="none">
<path d="M4655 5169 c-88 -8 -207 -32 -270 -53 -231 -80 -431 -247 -549 -458
-109 -196 -149 -494 -98 -728 11 -52 23 -103 27 -112 6 -14 -7 -12 -83 12
-205 66 -271 75 -572 75 -297 -1 -367 -9 -558 -70 -42 -13 -77 -23 -79 -22 -1
2 6 45 17 96 28 136 33 233 20 349 -27 249 -113 433 -279 605 -188 194 -447
297 -750 297 -187 0 -363 -36 -519 -106 -29 -13 -55 -24 -57 -24 -3 0 -47 -23
-97 -51 -151 -84 -317 -221 -428 -354 -346 -415 -435 -937 -230 -1346 95 -190
283 -366 477 -448 215 -91 493 -117 699 -65 l24 6 -30 -72 c-35 -86 -83 -251
-107 -375 -14 -72 -18 -140 -18 -340 1 -236 2 -257 28 -378 143 -657 572
-1167 1187 -1411 198 -78 495 -136 700 -136 162 0 386 36 575 92 530 158 989
579 1205 1105 99 241 140 452 140 732 0 261 -40 488 -124 695 -20 49 -34 91
-32 93 2 2 43 -3 91 -12 208 -36 466 -4 655 82 155 70 313 207 410 355 134
203 188 483 146 743 -93 565 -562 1058 -1136 1194 -132 31 -262 41 -385 30z"/>
</g>
</svg>
